# xmcd
#
# Track frame offsets: 
#        150
#        17150
#        35072
#        49479
#        66635
#        81448
#        99933
#        119134
#        133665
#        149124
#
# Disc length: 2177 seconds
#
# Revision: 0
# Processed by: cddbd v1.5.2PL0 Copyright (c) Steve Scherf et al.
# Submitted via: ExactAudioCopy v1.0b3
#
DISCID=a4087f0a
DTITLE=Rich O'Toole - Brightwork
DYEAR=2013
DGENRE=Country
TTITLE0=Miss Wherever You Are
TTITLE1=Meet Me in Chicago
TTITLE2=Messin Around
TTITLE3=Drunk Girl
TTITLE4=Summertime Girls
TTITLE5=Last Summer
TTITLE6=Dancing in the Dark
TTITLE7=Red Wine on Your Lipstick
TTITLE8=January 21st
TTITLE9=I Love You
EXTD=
EXTT0=
EXTT1=
EXTT2=
EXTT3=
EXTT4=
EXTT5=
EXTT6=
EXTT7=
EXTT8=
EXTT9=
PLAYORDER=
